<?xml version="1.0" standalone="no"?>
<!DOCTYPE svg PUBLIC "-//W3C//DTD SVG 20010904//EN"
 "http://www.w3.org/TR/2001/REC-SVG-20010904/DTD/svg10.dtd">
<svg version="1.0" xmlns="http://www.w3.org/2000/svg"
 width="2000.000000pt" height="2000.000000pt" viewBox="0 0 2000.000000 2000.000000"
 preserveAspectRatio="xMidYMid meet">
<metadata>
Created by potrace 1.11, written by Peter Selinger 2001-2013
</metadata>
<g transform="translate(0.000000,2000.000000) scale(0.100000,-0.100000)"
fill="#000000" stroke="none">
<path d="M13047 18804 c-1 -1 -317 -5 -702 -9 -668 -6 -863 -10 -872 -19 -16
-16 -24 -3259 -24 -9526 0 -6735 4 -7575 36 -7905 2 -16 4 -34 4 -40 4 -33 21
-37 157 -44 196 -9 1970 -7 2444 3 465 9 561 12 655 21 105 10 116 12 165 19
25 4 59 10 75 12 17 3 37 7 45 9 8 2 31 6 50 9 132 20 365 79 563 142 290 93
673 269 937 429 325 197 647 455 911 730 141 147 163 171 234 260 22 27 46 56
53 64 13 13 111 144 184 246 103 142 270 424 346 585 136 287 261 623 326 871
21 84 28 117 42 204 8 52 18 138 29 250 4 46 12 195 20 375 29 654 29 8622 0
9235 -11 234 -20 315 -57 485 -98 453 -260 889 -480 1284 -115 208 -307 494
-427 636 -11 14 -24 30 -28 35 -145 188 -451 486 -708 690 -118 94 -461 325
-482 325 -4 0 -14 6 -22 14 -25 22 -323 173 -458 232 -232 101 -481 186 -731
250 -181 46 -443 89 -611 100 -188 12 -221 13 -801 19 -779 9 -871 10 -873 9z
m2083 -7899 c107 -15 243 -48 340 -81 92 -31 265 -110 325 -147 314 -197 517
-412 681 -724 58 -109 138 -336 148 -418 4 -27 9 -57 11 -65 23 -78 29 -446
10 -581 -28 -195 -78 -349 -172 -529 -181 -346 -444 -611 -771 -778 -92 -48
-213 -99 -252 -107 -8 -2 -27 -8 -41 -13 -37 -15 -204 -50 -279 -59 -82 -10
-325 -10 -410 -1 -504 58 -1011 366 -1282 781 -15 23 -31 47 -35 52 -38 52
-130 246 -168 356 -19 54 -32 99 -30 99 3 0 0 12 -6 26 -15 41 -27 122 -36
249 -31 423 34 742 219 1075 108 196 305 410 515 558 75 54 268 162 287 162 7
0 16 4 22 8 13 13 142 58 242 86 77 22 232 50 317 59 51 5 317 0 365 -8z"/>
<path d="M6357 18794 c-1 -1 -211 -4 -467 -8 -256 -4 -501 -8 -545 -11 -138
-7 -259 -16 -285 -19 -14 -2 -47 -6 -75 -10 -94 -13 -417 -89 -555 -131 -79
-24 -282 -94 -305 -104 -11 -6 -76 -33 -145 -61 -114 -48 -337 -155 -435 -210
-34 -19 -90 -52 -190 -113 -370 -226 -794 -590 -1075 -926 -434 -519 -738
-1100 -910 -1741 -34 -128 -47 -186 -65 -280 -3 -14 -7 -36 -10 -50 -7 -36
-13 -76 -21 -145 -3 -33 -8 -68 -10 -78 -1 -9 -6 -54 -9 -100 -4 -45 -8 -102
-11 -127 -4 -45 -11 -196 -19 -385 -20 -489 -24 -2358 -11 -5870 8 -2186 15
-2900 31 -3115 2 -30 7 -93 10 -140 3 -47 8 -94 10 -105 2 -11 7 -41 10 -66
16 -135 166 -664 231 -814 7 -16 29 -73 49 -125 56 -143 213 -457 311 -620 48
-80 90 -147 94 -150 4 -3 13 -16 20 -29 35 -67 237 -332 360 -472 97 -111 322
-333 436 -431 438 -375 971 -676 1544 -873 112 -38 343 -108 400 -120 8 -2 35
-8 60 -14 69 -18 72 -18 120 -26 25 -4 53 -9 63 -11 91 -17 415 -32 817 -39
393 -7 1940 -17 2700 -18 758 -1 1028 4 1105 23 44 10 74 40 76 74 1 11 2 35
4 51 30 287 35 1350 35 7960 0 6977 -9 9282 -35 9365 -9 29 -64 45 -190 56
-58 5 -3112 13 -3118 8z m1881 -1413 c9 -1 12 -1480 12 -7361 l0 -7360 -422 5
c-2178 25 -2419 31 -2613 60 -59 9 -81 13 -115 20 -14 3 -35 7 -47 10 -49 9
-213 56 -308 88 -311 106 -588 251 -860 452 -144 106 -185 142 -334 288 -222
219 -408 471 -558 757 -81 153 -215 494 -237 600 -3 14 -7 34 -10 45 -42 153
-52 245 -61 540 -25 843 -35 2112 -36 4570 0 2674 17 4431 46 4740 19 198 139
564 272 830 272 541 698 997 1213 1299 47 28 299 153 360 179 37 16 160 63
250 95 62 22 252 68 320 77 25 3 52 8 60 10 8 2 42 6 75 10 33 3 76 8 95 10
38 4 224 16 335 21 39 2 403 6 810 10 407 3 741 7 742 8 1 1 990 -1 1011 -3z"/>
<path d="M5517 15194 c-1 -1 -36 -4 -77 -7 -41 -4 -84 -8 -95 -11 -11 -2 -40
-7 -65 -11 -85 -14 -252 -75 -385 -139 -190 -93 -329 -189 -461 -321 -106
-106 -234 -264 -234 -291 0 -7 -4 -14 -9 -16 -15 -6 -109 -210 -140 -305 -36
-111 -55 -198 -77 -358 -18 -133 -2 -497 27 -610 33 -127 136 -347 229 -490
93 -142 234 -298 347 -381 21 -16 40 -32 43 -35 15 -19 194 -126 287 -172 149
-74 224 -102 328 -122 122 -23 574 -27 675 -6 36 7 73 15 83 16 53 11 217 74
317 122 438 212 763 598 888 1055 21 74 24 87 36 163 13 79 16 122 16 245 0
140 -3 168 -26 305 -11 70 -57 225 -91 309 -154 387 -444 703 -814 888 -93 46
-298 121 -364 132 -16 3 -43 8 -58 12 -79 17 -366 38 -380 28z"/>
</g>
</svg>
