<?xml version="1.0" standalone="no"?>
<!DOCTYPE svg PUBLIC "-//W3C//DTD SVG 20010904//EN"
 "http://www.w3.org/TR/2001/REC-SVG-20010904/DTD/svg10.dtd">
<svg version="1.0" xmlns="http://www.w3.org/2000/svg"
 width="512.000000pt" height="512.000000pt" viewBox="0 0 512.000000 512.000000"
 preserveAspectRatio="xMidYMid meet">
<metadata>
Created by potrace 1.11, written by Peter Selinger 2001-2013
</metadata>
<g transform="translate(0.000000,512.000000) scale(0.100000,-0.100000)"
fill="#000000" stroke="none">
<path d="M1140 4880 c-223 -21 -480 -145 -661 -317 -110 -104 -191 -215 -255
-348 -73 -152 -102 -270 -114 -469 -12 -192 -12 -1817 0 -2236 7 -271 10 -302
33 -380 67 -230 168 -401 329 -556 140 -135 307 -230 518 -295 l105 -33 619 0
620 -1 8 32 c4 17 7 1058 6 2313 -3 2015 -5 2282 -18 2290 -17 11 -1075 11
-1190 0z m825 -2315 l0 -1950 -180 -3 c-300 -4 -649 13 -720 36 -258 84 -448
266 -538 516 -28 77 -30 92 -39 326 -5 135 -7 718 -5 1295 5 1166 1 1096 73
1253 98 216 279 372 518 448 54 18 334 29 711 29 l180 0 0 -1950z"/>
<path d="M1190 3930 c-140 -24 -287 -148 -331 -276 -19 -54 -24 -90 -24 -169
0 -93 3 -105 34 -168 108 -223 371 -317 588 -212 79 39 166 129 206 212 30 64
32 75 32 179 0 107 -1 112 -38 186 -50 102 -139 185 -235 221 -77 28 -167 39
-232 27z"/>
<path d="M2850 4882 l-35 -7 -8 -85 c-10 -111 -4 -4536 6 -4546 12 -13 706
-17 997 -6 311 12 381 27 565 116 298 146 513 393 616 709 55 168 54 142 54
1517 l0 1275 -23 90 c-74 294 -224 530 -443 694 -142 107 -376 210 -528 231
-80 11 -1152 22 -1201 12z m1107 -382 c214 -23 422 -143 551 -318 58 -79 86
-131 120 -227 23 -65 25 -90 34 -355 5 -157 7 -744 5 -1305 -6 -1121 -2 -1058
-67 -1202 -36 -78 -124 -204 -182 -259 -91 -87 -229 -164 -359 -200 -57 -16
-110 -18 -469 -19 l-405 0 -3 1940 c-1 1067 0 1945 2 1951 5 14 631 9 773 -6z"/>
<path d="M3814 2770 c-109 -16 -236 -102 -302 -205 -131 -206 -40 -512 184
-617 179 -84 360 -52 499 87 66 65 96 119 114 203 39 186 -31 366 -182 463
-95 62 -202 85 -313 69z"/>
</g>
</svg>
